<svg xmlns="http://www.w3.org/2000/svg" xmlns:xlink="http://www.w3.org/1999/xlink" width="162" height="31" viewBox="0 0 162 31">
    <defs>
        <path id="tq5yc9bdua" d="M0 0.091L161.695 0.091 161.695 15.885 0 15.885z"/>
        <path id="4e9s68ddac" d="M0 33.569L161.695 33.569 161.695 0.569 0 0.569z"/>
    </defs>
    <g fill="none" fill-rule="evenodd">
        <g>
            <g>
                <g transform="translate(-109 -57) translate(0 35) translate(109 22)">
                    <g transform="translate(0 .478)">
                        <mask id="tenm5qhbwb" fill="#fff">
                            <use xlink:href="#tq5yc9bdua"/>
                        </mask>
                        <path fill="#FEFEFE" d="M7.821.09c.66 0 3.119.19 4.396 1.259 0 0-1.37 2.87-1.88 4.032-.755-.452-1.437-.908-2.516-.898-2.138.02-3.427 2.278-3.415 3.569.01 1.062 1.002 3.505 3.341 3.474h63.557V.99h3.975l5.629 5.961 5.68-5.907h3.923v10.482h59.077l-8.48-5.946-.073 4.294h-3.653V1.017h3.66v3.806l4.203-3.815 4.21.009-4.225 3.678 16.465 11.19h-75.71V7.988l-5.023 5.278-5.258-5.274v7.893H7.17C4.122 15.869 0 12.614 0 8.052 0 3.96 3.414.09 7.82.09" mask="url(#tenm5qhbwb)"/>
                    </g>
                    <path fill="#FEFEFE" d="M32.852 1.494h3.157c.436.363 3.061 2.785 4.865 4.415V1.494h3.565v8.858h-2.953c-1.678-1.442-3.5-2.927-5.152-4.444.014 1.217.001 2.83 0 4.444h-3.482V1.494zM54.148 1.494h7.56v1.903h-4.107v1.588h3.802v1.753h-3.802v1.716c.374 0 2.586.006 4.107 0v1.898h-7.56V1.494zM102.728 1.494h3.868l4.532 8.858h-3.525l-.779-1.442-4.454-.005-.648 1.447H98.06l4.67-8.858zm1.924 2.36l-1.535 3.492h3.046l-1.51-3.492zM118.802 1.494h6.845c1.405 0 2.965 1.002 2.965 2.59 0 1.703-1.123 1.636-1.588 2.032 1.648.69 2.058 3.05 2.744 4.236h-3.606c-.37-.909-1.474-3.635-2.492-3.642l-1.213.028v3.614h-3.655V1.494zm3.655 1.428v2.351l1.44.028c.333 0 1.306-.137 1.297-1.18-.009-.988-.964-1.199-1.297-1.208l-1.44.01z"/>
                    <mask id="4qj0uqezed" fill="#fff">
                        <use xlink:href="#4e9s68ddac"/>
                    </mask>
                    <path fill="#FEFEFE" d="M19.704 10.352L23.183 10.352 23.183 1.495 19.704 1.495zM18.856 24.014l-.154-.306 1.548-.914.262.5-1.656.72zm2.695 5.644h-3.42V24.39h3.344v.568h-2.68v1.674h2.125v.53h-2.125v1.926h2.756v.569zM25.779 29.658L25.225 29.658 25.225 24.391 26.211 24.391 27.805 28.605 29.359 24.391 30.331 24.391 30.331 29.658 29.668 29.658 29.668 25.059 29.638 25.059 27.967 29.658 27.52 29.658 25.81 25.059 25.779 25.059zM33.288 25.097l-.816 2.526h1.625l-.81-2.526zm1.487 4.56l-.531-1.536h-1.957l-.47 1.537h-.555l1.71-5.268h.764l1.717 5.268h-.678zM36.407 29.658L37.07 29.658 37.07 24.39 36.407 24.39zM38.918 28.107c.216.729.824 1.067 1.563 1.067.316 0 .701-.07.947-.261.201-.153.325-.422.325-.676 0-.53-.44-.744-.901-.86l-.878-.215c-.354-.084-.68-.168-.955-.422-.278-.246-.431-.607-.431-.975 0-1.014.877-1.45 1.793-1.45.886 0 1.594.436 1.88 1.288l-.6.162c-.116-.575-.733-.929-1.295-.929-.5 0-1.132.261-1.132.837 0 .591.462.721.956.837l.792.191c.346.078.693.177.963.408.332.269.493.63.493 1.043 0 .476-.208.906-.594 1.198-.384.292-.9.384-1.378.384-1.079 0-1.787-.476-2.141-1.497l.593-.13zM49.585 27.04c0-.975-.285-2.142-1.486-2.142-.586 0-1.01.276-1.233.813-.169.399-.247.93-.247 1.367 0 .914.3 2.111 1.433 2.111 1.21 0 1.533-1.152 1.533-2.15zm.368 3.247v.522c-.183.062-.377.1-.569.1-.785 0-1.255-.384-1.27-1.175-1.525-.038-2.202-1.297-2.202-2.672 0-.629.122-1.305.492-1.835.415-.599.963-.913 1.701-.913 1.534 0 2.196 1.375 2.196 2.71 0 1.106-.47 2.326-1.649 2.626v.114c0 .43.301.577.68.577l.621-.054zM55.199 24.39v3.333c0 .522-.03 1.005-.386 1.428-.353.422-.884.583-1.423.583-.517 0-1.063-.107-1.417-.507-.386-.43-.417-.959-.417-1.504V24.39h.662v3.332c0 .314.008.745.201 1.02.215.315.662.408 1.024.408.339 0 .724-.107.947-.376.255-.3.255-.692.255-1.052V24.39h.554zM60.19 29.658L56.771 29.658 56.771 24.391 60.112 24.391 60.112 24.959 57.433 24.959 57.433 26.632 59.557 26.632 59.557 27.162 57.433 27.162 57.433 29.089 60.19 29.089zM67.676 28.015c-.247.998-.84 1.719-1.958 1.719-1.524 0-2.148-1.466-2.148-2.763 0-1.36.67-2.657 2.203-2.657 1.063 0 1.687.714 1.903 1.68l-.624.116c-.185-.668-.517-1.243-1.303-1.243-1.146 0-1.455 1.243-1.455 2.157 0 .414.07.929.247 1.313.215.468.624.845 1.177.845.81 0 1.188-.607 1.356-1.298l.602.13zM68.938 29.658L69.601 29.658 69.601 24.39 68.938 24.39zM74.407 29.658L71.719 25.066 71.719 29.658 71.164 29.658 71.164 24.391 71.995 24.391 74.498 28.682 74.498 24.391 75.053 24.391 75.053 29.658zM79.943 29.658L76.525 29.658 76.525 24.391 79.867 24.391 79.867 24.959 77.187 24.959 77.187 26.632 79.313 26.632 79.313 27.162 77.187 27.162 77.187 29.089 79.943 29.089zM81.607 29.658L81.053 29.658 81.053 24.391 82.038 24.391 83.632 28.605 85.187 24.391 86.158 24.391 86.158 29.658 85.497 29.658 85.497 25.059 85.466 25.059 83.794 29.658 83.347 29.658 81.638 25.059 81.607 25.059zM89.116 25.097l-.817 2.526h1.627l-.81-2.526zm1.486 4.56l-.53-1.536h-1.958l-.469 1.537h-.555l1.71-5.268h.762l1.718 5.268h-.678zM93.335 30.658L94.189 30.658 94.189 29.789 93.335 29.789zM143.812 30.658L144.667 30.658 144.667 29.789 143.812 29.789zM98.08 24.014l-.154-.306 1.548-.914.262.5-1.656.72zm2.696 5.644h-3.42V24.39h3.343v.568h-2.681v1.674h2.126v.53h-2.126v1.926h2.758v.569zM108.262 28.015c-.247.998-.84 1.719-1.957 1.719-1.525 0-2.148-1.466-2.148-2.763 0-1.36.67-2.657 2.202-2.657 1.062 0 1.686.714 1.903 1.68l-.625.116c-.184-.668-.515-1.243-1.3-1.243-1.148 0-1.456 1.243-1.456 2.157 0 .414.068.929.245 1.313.217.468.626.845 1.179.845.809 0 1.186-.607 1.356-1.298l.6.13zM109.524 29.658L110.187 29.658 110.187 24.39 109.524 24.39zM114.993 29.658L112.305 25.066 112.305 29.658 111.75 29.658 111.75 24.391 112.582 24.391 115.084 28.682 115.084 24.391 115.64 24.391 115.64 29.658zM120.53 29.658L117.111 29.658 117.111 24.391 120.453 24.391 120.453 24.959 117.773 24.959 117.773 26.632 119.899 26.632 119.899 27.162 117.773 27.162 117.773 29.089 120.53 29.089zM122.193 29.658L121.638 29.658 121.638 24.391 122.625 24.391 124.219 28.605 125.774 24.391 126.745 24.391 126.745 29.658 126.083 29.658 126.083 25.059 126.052 25.059 124.38 29.658 123.935 29.658 122.225 25.059 122.193 25.059zM129.703 25.097l-.817 2.526h1.625l-.808-2.526zm1.485 4.56l-.53-1.536H128.7l-.47 1.537h-.555l1.71-5.268h.763l1.717 5.268h-.678zM134.685 26.84c.355 0 .647-.024.91-.292.184-.184.268-.438.268-.691 0-.307-.115-.56-.368-.73-.232-.16-.455-.169-.732-.169h-1.318v1.882h1.24zm1.202 2.818l-.98-2.28h-1.462v2.28h-.663V24.39h1.981c.43 0 .846.054 1.2.323.355.27.563.707.563 1.152 0 .622-.37 1.183-.986 1.351l1.04 2.442h-.693zM141.293 29.658L139.722 26.755 138.513 28.253 138.513 29.658 137.851 29.658 137.851 24.391 138.513 24.391 138.513 27.446 140.893 24.391 141.609 24.391 140.183 26.234 142.026 29.658z" mask="url(#4qj0uqezed)"/>
                </g>
            </g>
        </g>
    </g>
</svg>
